<mxfile host="65bd71144e">
    <diagram id="oM7vXEvF-nyBrCfh50hu" name="第 1 页">
        <mxGraphModel dx="571" dy="419" grid="1" gridSize="10" guides="1" tooltips="1" connect="1" arrows="1" fold="1" page="1" pageScale="1" pageWidth="1390" pageHeight="980" math="0" shadow="0">
            <root>
                <mxCell id="0"/>
                <mxCell id="1" parent="0"/>
                <mxCell id="KMKHdDrqFi0lqZ_SUr9B-1" value="JAVA&amp;nbsp; &amp;nbsp; &amp;nbsp; &amp;nbsp;IO基础知识" style="rounded=0;whiteSpace=wrap;html=1;" parent="1" vertex="1">
                    <mxGeometry x="40" y="30" width="750" height="40" as="geometry"/>
                </mxCell>
                <mxCell id="KMKHdDrqFi0lqZ_SUr9B-28" style="edgeStyle=orthogonalEdgeStyle;rounded=0;orthogonalLoop=1;jettySize=auto;html=1;entryX=0;entryY=0.5;entryDx=0;entryDy=0;" parent="1" source="KMKHdDrqFi0lqZ_SUr9B-2" target="KMKHdDrqFi0lqZ_SUr9B-12" edge="1">
                    <mxGeometry relative="1" as="geometry"/>
                </mxCell>
                <mxCell id="KMKHdDrqFi0lqZ_SUr9B-29" style="edgeStyle=orthogonalEdgeStyle;rounded=0;orthogonalLoop=1;jettySize=auto;html=1;entryX=0;entryY=0.5;entryDx=0;entryDy=0;" parent="1" source="KMKHdDrqFi0lqZ_SUr9B-2" target="KMKHdDrqFi0lqZ_SUr9B-14" edge="1">
                    <mxGeometry relative="1" as="geometry"/>
                </mxCell>
                <mxCell id="KMKHdDrqFi0lqZ_SUr9B-2" value="输入流" style="rounded=0;whiteSpace=wrap;html=1;" parent="1" vertex="1">
                    <mxGeometry x="150" y="190" width="100" height="30" as="geometry"/>
                </mxCell>
                <mxCell id="KMKHdDrqFi0lqZ_SUr9B-20" style="edgeStyle=orthogonalEdgeStyle;rounded=0;orthogonalLoop=1;jettySize=auto;html=1;entryX=0;entryY=0.5;entryDx=0;entryDy=0;" parent="1" source="KMKHdDrqFi0lqZ_SUr9B-3" target="KMKHdDrqFi0lqZ_SUr9B-18" edge="1">
                    <mxGeometry relative="1" as="geometry"/>
                </mxCell>
                <mxCell id="KMKHdDrqFi0lqZ_SUr9B-21" style="edgeStyle=orthogonalEdgeStyle;rounded=0;orthogonalLoop=1;jettySize=auto;html=1;entryX=0;entryY=0.5;entryDx=0;entryDy=0;" parent="1" source="KMKHdDrqFi0lqZ_SUr9B-3" target="KMKHdDrqFi0lqZ_SUr9B-19" edge="1">
                    <mxGeometry relative="1" as="geometry"/>
                </mxCell>
                <mxCell id="KMKHdDrqFi0lqZ_SUr9B-3" value="输出流" style="rounded=0;whiteSpace=wrap;html=1;" parent="1" vertex="1">
                    <mxGeometry x="200" y="1000" width="90" height="30" as="geometry"/>
                </mxCell>
                <mxCell id="KMKHdDrqFi0lqZ_SUr9B-5" value="什么是IO？&lt;br&gt;就是输入和输出，输入是指数据输入到计算机内存的过程，输出是指数据输出到外部存储（数据库，文件，远程主机）的过程" style="text;html=1;strokeColor=none;fillColor=none;align=center;verticalAlign=middle;whiteSpace=wrap;rounded=0;" parent="1" vertex="1">
                    <mxGeometry x="70" y="90" width="180" height="80" as="geometry"/>
                </mxCell>
                <mxCell id="KMKHdDrqFi0lqZ_SUr9B-9" style="edgeStyle=orthogonalEdgeStyle;rounded=0;orthogonalLoop=1;jettySize=auto;html=1;entryX=0;entryY=0.5;entryDx=0;entryDy=0;" parent="1" source="KMKHdDrqFi0lqZ_SUr9B-8" target="KMKHdDrqFi0lqZ_SUr9B-2" edge="1">
                    <mxGeometry relative="1" as="geometry"/>
                </mxCell>
                <mxCell id="KMKHdDrqFi0lqZ_SUr9B-10" style="edgeStyle=orthogonalEdgeStyle;rounded=0;orthogonalLoop=1;jettySize=auto;html=1;entryX=0;entryY=0.5;entryDx=0;entryDy=0;" parent="1" source="KMKHdDrqFi0lqZ_SUr9B-8" target="KMKHdDrqFi0lqZ_SUr9B-3" edge="1">
                    <mxGeometry relative="1" as="geometry"/>
                </mxCell>
                <mxCell id="KMKHdDrqFi0lqZ_SUr9B-8" value="JAVA IO流" style="rounded=0;whiteSpace=wrap;html=1;" parent="1" vertex="1">
                    <mxGeometry x="40" y="230" width="70" height="40" as="geometry"/>
                </mxCell>
                <mxCell id="KMKHdDrqFi0lqZ_SUr9B-22" style="edgeStyle=orthogonalEdgeStyle;rounded=0;orthogonalLoop=1;jettySize=auto;html=1;entryX=0;entryY=0.5;entryDx=0;entryDy=0;" parent="1" source="KMKHdDrqFi0lqZ_SUr9B-12" target="KMKHdDrqFi0lqZ_SUr9B-24" edge="1">
                    <mxGeometry relative="1" as="geometry">
                        <mxPoint x="510" y="175" as="targetPoint"/>
                    </mxGeometry>
                </mxCell>
                <mxCell id="KMKHdDrqFi0lqZ_SUr9B-25" style="edgeStyle=orthogonalEdgeStyle;rounded=0;orthogonalLoop=1;jettySize=auto;html=1;entryX=0;entryY=0.5;entryDx=0;entryDy=0;" parent="1" source="KMKHdDrqFi0lqZ_SUr9B-12" target="KMKHdDrqFi0lqZ_SUr9B-23" edge="1">
                    <mxGeometry relative="1" as="geometry">
                        <Array as="points">
                            <mxPoint x="400" y="90"/>
                            <mxPoint x="920" y="90"/>
                            <mxPoint x="920" y="130"/>
                        </Array>
                    </mxGeometry>
                </mxCell>
                <mxCell id="KMKHdDrqFi0lqZ_SUr9B-12" value="InputStream抽象类（字节输入流）" style="rounded=0;whiteSpace=wrap;html=1;" parent="1" vertex="1">
                    <mxGeometry x="300" y="125" width="200" height="50" as="geometry"/>
                </mxCell>
                <mxCell id="KMKHdDrqFi0lqZ_SUr9B-49" style="edgeStyle=orthogonalEdgeStyle;rounded=0;orthogonalLoop=1;jettySize=auto;html=1;fontFamily=Verdana;" parent="1" source="KMKHdDrqFi0lqZ_SUr9B-14" edge="1">
                    <mxGeometry relative="1" as="geometry">
                        <mxPoint x="540" y="340.0000000000001" as="targetPoint"/>
                    </mxGeometry>
                </mxCell>
                <mxCell id="KMKHdDrqFi0lqZ_SUr9B-14" value="Reader（字符输入流）unicode编码" style="rounded=0;whiteSpace=wrap;html=1;" parent="1" vertex="1">
                    <mxGeometry x="300" y="250" width="200" height="60" as="geometry"/>
                </mxCell>
                <mxCell id="KMKHdDrqFi0lqZ_SUr9B-53" style="edgeStyle=orthogonalEdgeStyle;rounded=0;orthogonalLoop=1;jettySize=auto;html=1;fontFamily=Verdana;" parent="1" source="KMKHdDrqFi0lqZ_SUr9B-18" edge="1">
                    <mxGeometry relative="1" as="geometry">
                        <mxPoint x="550" y="935" as="targetPoint"/>
                    </mxGeometry>
                </mxCell>
                <mxCell id="KMKHdDrqFi0lqZ_SUr9B-18" value="OutputStream（字节输出流）" style="rounded=0;whiteSpace=wrap;html=1;" parent="1" vertex="1">
                    <mxGeometry x="340" y="920" width="170" height="30" as="geometry"/>
                </mxCell>
                <mxCell id="KMKHdDrqFi0lqZ_SUr9B-56" style="edgeStyle=orthogonalEdgeStyle;rounded=0;orthogonalLoop=1;jettySize=auto;html=1;entryX=0;entryY=0.5;entryDx=0;entryDy=0;fontFamily=Verdana;" parent="1" source="KMKHdDrqFi0lqZ_SUr9B-19" target="KMKHdDrqFi0lqZ_SUr9B-55" edge="1">
                    <mxGeometry relative="1" as="geometry"/>
                </mxCell>
                <mxCell id="KMKHdDrqFi0lqZ_SUr9B-19" value="Writer（字符输出流）" style="rounded=0;whiteSpace=wrap;html=1;" parent="1" vertex="1">
                    <mxGeometry x="340" y="1080" width="170" height="30" as="geometry"/>
                </mxCell>
                <mxCell id="KMKHdDrqFi0lqZ_SUr9B-23" value="read()&amp;nbsp; &amp;nbsp; 读输入流，返回字节的10进制数，读不到返回-1&lt;br&gt;read(byte [])&amp;nbsp; 读输入流到数组中，返回读取的字节数，读不到返回-1&lt;br&gt;read(byte b[],int off,int len)&amp;nbsp; &amp;nbsp;从b[off]读到b[off+len-1]&lt;br&gt;skip(long n)&amp;nbsp; 跳过输入流的n个字节&lt;br&gt;available()：返回输入流中可以读取的字节数&lt;br&gt;close(): 关闭输入流释放系统资源" style="rounded=0;whiteSpace=wrap;html=1;align=left;" parent="1" vertex="1">
                    <mxGeometry x="1050" y="50" width="280" height="160" as="geometry"/>
                </mxCell>
                <mxCell id="KMKHdDrqFi0lqZ_SUr9B-62" style="edgeStyle=orthogonalEdgeStyle;rounded=0;orthogonalLoop=1;jettySize=auto;html=1;entryX=0.5;entryY=0;entryDx=0;entryDy=0;fontFamily=Verdana;" parent="1" source="KMKHdDrqFi0lqZ_SUr9B-24" target="KMKHdDrqFi0lqZ_SUr9B-61" edge="1">
                    <mxGeometry relative="1" as="geometry"/>
                </mxCell>
                <mxCell id="KMKHdDrqFi0lqZ_SUr9B-24" value="FileInputStream实现类" style="rounded=0;whiteSpace=wrap;html=1;" parent="1" vertex="1">
                    <mxGeometry x="525" y="125" width="150" height="50" as="geometry"/>
                </mxCell>
                <mxCell id="KMKHdDrqFi0lqZ_SUr9B-34" style="edgeStyle=orthogonalEdgeStyle;rounded=0;orthogonalLoop=1;jettySize=auto;html=1;entryX=0;entryY=0.5;entryDx=0;entryDy=0;" parent="1" source="KMKHdDrqFi0lqZ_SUr9B-26" target="KMKHdDrqFi0lqZ_SUr9B-33" edge="1">
                    <mxGeometry relative="1" as="geometry">
                        <mxPoint x="980" y="330" as="targetPoint"/>
                    </mxGeometry>
                </mxCell>
                <mxCell id="KMKHdDrqFi0lqZ_SUr9B-26" value="BufferedInputStream&lt;br&gt;（读取String）" style="rounded=0;whiteSpace=wrap;html=1;" parent="1" vertex="1">
                    <mxGeometry x="750" y="125" width="150" height="50" as="geometry"/>
                </mxCell>
                <mxCell id="KMKHdDrqFi0lqZ_SUr9B-31" value="继承" style="text;html=1;strokeColor=none;fillColor=none;align=center;verticalAlign=middle;whiteSpace=wrap;rounded=0;" parent="1" vertex="1">
                    <mxGeometry x="670" y="210" width="50" height="20" as="geometry"/>
                </mxCell>
                <mxCell id="KMKHdDrqFi0lqZ_SUr9B-33" value="&lt;p style=&quot;margin-top: 0.85rem; margin-bottom: 0.85rem; margin-left: var(--line-numbers-width); overflow: auto; padding: 1rem; border-radius: 6px; line-height: 1.4; position: relative; z-index: 1; background: 0px 0px; vertical-align: middle; text-shadow: rgba(0, 0, 0, 0.3) 0px 1px; tab-size: 2; color: rgb(158, 158, 158); font-size: 16px;&quot;&gt;&lt;code style=&quot;font-family: var(--font-family-code); padding: 0px; border-radius: 0px; font-size: 0.85em; overflow-wrap: unset; transition: color var(--color-transition); margin: 0px; color: var(--code-color); word-spacing: normal; word-break: normal; hyphens: none; -webkit-font-smoothing: auto; background: 0px 0px !important;&quot;&gt;&lt;span style=&quot;color: rgb(92, 99, 112); font-style: italic;&quot; class=&quot;token comment&quot;&gt;// 新建一个 BufferedInputStream 对象&lt;br&gt;&lt;/span&gt;&lt;/code&gt;&lt;code style=&quot;font-family: var(--font-family-code); padding: 0px; border-radius: 0px; font-size: 0.85em; overflow-wrap: unset; transition: color var(--color-transition); margin: 0px; color: var(--code-color); word-spacing: normal; word-break: normal; hyphens: none; -webkit-font-smoothing: auto; background: 0px 0px !important;&quot;&gt;&lt;span style=&quot;color: rgb(209, 154, 102);&quot; class=&quot;token class-name&quot;&gt;BufferedInputStream&lt;/span&gt; bufferedInputStream &lt;span style=&quot;color: rgb(97, 175, 239);&quot; class=&quot;token operator&quot;&gt;=&lt;/span&gt; &lt;span style=&quot;color: rgb(198, 120, 221);&quot; class=&quot;token keyword&quot;&gt;new&lt;/span&gt; &lt;span style=&quot;color: rgb(209, 154, 102);&quot; class=&quot;token class-name&quot;&gt;BufferedInputStream&lt;/span&gt;&lt;span style=&quot;color: rgb(171, 178, 191);&quot; class=&quot;token punctuation&quot;&gt;(&lt;/span&gt;&lt;span style=&quot;color: rgb(198, 120, 221);&quot; class=&quot;token keyword&quot;&gt;new&lt;/span&gt; &lt;span style=&quot;color: rgb(209, 154, 102);&quot; class=&quot;token class-name&quot;&gt;FileInputStream&lt;/span&gt;&lt;span style=&quot;color: rgb(171, 178, 191);&quot; class=&quot;token punctuation&quot;&gt;(&lt;/span&gt;&lt;span style=&quot;color: rgb(152, 195, 121);&quot; class=&quot;token string&quot;&gt;&quot;input.txt&quot;&lt;/span&gt;&lt;span style=&quot;color: rgb(171, 178, 191);&quot; class=&quot;token punctuation&quot;&gt;)&lt;/span&gt;&lt;span style=&quot;color: rgb(171, 178, 191);&quot; class=&quot;token punctuation&quot;&gt;)&lt;/span&gt;&lt;span style=&quot;color: rgb(171, 178, 191);&quot; class=&quot;token punctuation&quot;&gt;;&lt;br&gt;&lt;/span&gt;&lt;/code&gt;&lt;code style=&quot;font-family: var(--font-family-code); padding: 0px; border-radius: 0px; font-size: 0.85em; overflow-wrap: unset; transition: color var(--color-transition); margin: 0px; color: var(--code-color); word-spacing: normal; word-break: normal; hyphens: none; -webkit-font-smoothing: auto; background: 0px 0px !important;&quot;&gt;&lt;span style=&quot;color: rgb(92, 99, 112); font-style: italic;&quot; class=&quot;token comment&quot;&gt;// 读取文件的内容并复制到 String 对象中&lt;br&gt;&lt;/span&gt;&lt;/code&gt;&lt;code style=&quot;font-family: var(--font-family-code); padding: 0px; border-radius: 0px; font-size: 0.85em; overflow-wrap: unset; transition: color var(--color-transition); margin: 0px; color: var(--code-color); word-spacing: normal; word-break: normal; hyphens: none; -webkit-font-smoothing: auto; background: 0px 0px !important;&quot;&gt;&lt;span style=&quot;color: rgb(209, 154, 102);&quot; class=&quot;token class-name&quot;&gt;String&lt;/span&gt; result &lt;span style=&quot;color: rgb(97, 175, 239);&quot; class=&quot;token operator&quot;&gt;=&lt;/span&gt; &lt;span style=&quot;color: rgb(198, 120, 221);&quot; class=&quot;token keyword&quot;&gt;new&lt;/span&gt; &lt;span style=&quot;color: rgb(209, 154, 102);&quot; class=&quot;token class-name&quot;&gt;String&lt;/span&gt;&lt;span style=&quot;color: rgb(171, 178, 191);&quot; class=&quot;token punctuation&quot;&gt;(&lt;/span&gt;bufferedInputStream&lt;span style=&quot;color: rgb(171, 178, 191);&quot; class=&quot;token punctuation&quot;&gt;.&lt;/span&gt;&lt;span style=&quot;color: rgb(97, 175, 239);&quot; class=&quot;token function&quot;&gt;readAllBytes&lt;/span&gt;&lt;span style=&quot;color: rgb(171, 178, 191);&quot; class=&quot;token punctuation&quot;&gt;(&lt;/span&gt;&lt;span style=&quot;color: rgb(171, 178, 191);&quot; class=&quot;token punctuation&quot;&gt;)&lt;/span&gt;&lt;span style=&quot;color: rgb(171, 178, 191);&quot; class=&quot;token punctuation&quot;&gt;)&lt;/span&gt;&lt;span style=&quot;color: rgb(171, 178, 191);&quot; class=&quot;token punctuation&quot;&gt;;&lt;br&gt;&lt;/span&gt;&lt;/code&gt;&lt;code style=&quot;font-family: var(--font-family-code); padding: 0px; border-radius: 0px; font-size: 0.85em; overflow-wrap: unset; transition: color var(--color-transition); margin: 0px; color: var(--code-color); word-spacing: normal; word-break: normal; hyphens: none; -webkit-font-smoothing: auto; background: 0px 0px !important;&quot;&gt;&lt;span style=&quot;color: rgb(209, 154, 102);&quot; class=&quot;token class-name&quot;&gt;System&lt;/span&gt;&lt;span style=&quot;color: rgb(171, 178, 191);&quot; class=&quot;token punctuation&quot;&gt;.&lt;/span&gt;out&lt;span style=&quot;color: rgb(171, 178, 191);&quot; class=&quot;token punctuation&quot;&gt;.&lt;/span&gt;&lt;span style=&quot;color: rgb(97, 175, 239);&quot; class=&quot;token function&quot;&gt;println&lt;/span&gt;&lt;span style=&quot;color: rgb(171, 178, 191);&quot; class=&quot;token punctuation&quot;&gt;(&lt;/span&gt;result&lt;span style=&quot;color: rgb(171, 178, 191);&quot; class=&quot;token punctuation&quot;&gt;)&lt;/span&gt;&lt;span style=&quot;color: rgb(171, 178, 191);&quot; class=&quot;token punctuation&quot;&gt;;&lt;/span&gt;&lt;/code&gt;&lt;/p&gt;" style="rounded=0;whiteSpace=wrap;html=1;align=left;" parent="1" vertex="1">
                    <mxGeometry x="1020" y="230" width="720" height="130" as="geometry"/>
                </mxCell>
                <mxCell id="KMKHdDrqFi0lqZ_SUr9B-42" style="edgeStyle=orthogonalEdgeStyle;rounded=0;orthogonalLoop=1;jettySize=auto;html=1;entryX=0;entryY=0.568;entryDx=0;entryDy=0;entryPerimeter=0;fontFamily=Verdana;" parent="1" source="KMKHdDrqFi0lqZ_SUr9B-36" target="KMKHdDrqFi0lqZ_SUr9B-40" edge="1">
                    <mxGeometry relative="1" as="geometry">
                        <Array as="points">
                            <mxPoint x="940" y="230"/>
                            <mxPoint x="940" y="467"/>
                        </Array>
                    </mxGeometry>
                </mxCell>
                <mxCell id="KMKHdDrqFi0lqZ_SUr9B-36" value="DataInputStream&lt;br&gt;（读取指定类型数据）" style="rounded=0;whiteSpace=wrap;html=1;" parent="1" vertex="1">
                    <mxGeometry x="750" y="200" width="150" height="60" as="geometry"/>
                </mxCell>
                <mxCell id="KMKHdDrqFi0lqZ_SUr9B-44" style="edgeStyle=orthogonalEdgeStyle;rounded=0;orthogonalLoop=1;jettySize=auto;html=1;fontFamily=Verdana;entryX=0;entryY=0.5;entryDx=0;entryDy=0;" parent="1" source="KMKHdDrqFi0lqZ_SUr9B-37" target="KMKHdDrqFi0lqZ_SUr9B-45" edge="1">
                    <mxGeometry relative="1" as="geometry">
                        <mxPoint x="920" y="580" as="targetPoint"/>
                        <Array as="points">
                            <mxPoint x="920" y="310"/>
                            <mxPoint x="920" y="630"/>
                        </Array>
                    </mxGeometry>
                </mxCell>
                <mxCell id="KMKHdDrqFi0lqZ_SUr9B-37" value="ObjectInputStream&lt;br&gt;（读取Java对象）" style="rounded=0;whiteSpace=wrap;html=1;" parent="1" vertex="1">
                    <mxGeometry x="750" y="280" width="150" height="60" as="geometry"/>
                </mxCell>
                <mxCell id="KMKHdDrqFi0lqZ_SUr9B-40" value="&lt;div style=&quot;font-family: Verdana;&quot;&gt;FileInputStream fileInputStream = new FileInputStream(&quot;input.txt&quot;);&lt;/div&gt;&lt;div style=&quot;font-family: Verdana;&quot;&gt;//必须将fileInputStream作为构造参数才能使用&lt;/div&gt;&lt;div style=&quot;font-family: Verdana;&quot;&gt;DataInputStream dataInputStream = new DataInputStream(fileInputStream);&lt;/div&gt;&lt;div style=&quot;font-family: Verdana;&quot;&gt;//可以读取任意具体的类型数据&lt;/div&gt;&lt;div style=&quot;font-family: Verdana;&quot;&gt;dataInputStream.readBoolean();&lt;/div&gt;&lt;div style=&quot;font-family: Verdana;&quot;&gt;dataInputStream.readInt();&lt;/div&gt;&lt;div style=&quot;font-family: Verdana;&quot;&gt;dataInputStream.readUTF();&lt;/div&gt;" style="rounded=0;whiteSpace=wrap;html=1;align=left;fillColor=none;" parent="1" vertex="1">
                    <mxGeometry x="1020" y="385" width="520" height="145" as="geometry"/>
                </mxCell>
                <mxCell id="KMKHdDrqFi0lqZ_SUr9B-45" value="&lt;div&gt;ObjectInputStream input = new ObjectInputStream(new FileInputStream(&quot;object.data&quot;));&lt;/div&gt;&lt;div&gt;MyClass object = (MyClass) input.readObject();&amp;nbsp; // 注意要强制转换&lt;/div&gt;&lt;div&gt;input.close();&lt;/div&gt;" style="rounded=0;whiteSpace=wrap;html=1;fontFamily=Verdana;align=left;" parent="1" vertex="1">
                    <mxGeometry x="1020" y="560" width="500" height="100" as="geometry"/>
                </mxCell>
                <mxCell id="KMKHdDrqFi0lqZ_SUr9B-47" value="" style="rounded=0;whiteSpace=wrap;html=1;fontFamily=Verdana;" parent="1" vertex="1">
                    <mxGeometry x="250" y="500" width="330" height="180" as="geometry"/>
                </mxCell>
                <mxCell id="KMKHdDrqFi0lqZ_SUr9B-48" value="常用字符串编码：&lt;br&gt;&lt;div style=&quot;text-align: left;&quot;&gt;&lt;span style=&quot;background-color: initial;&quot;&gt;utf8：英文占1字节，中文占3字节&lt;/span&gt;&lt;/div&gt;&lt;div style=&quot;text-align: left;&quot;&gt;&lt;span style=&quot;background-color: initial;&quot;&gt;unicode：任何字符都占2个字节&lt;/span&gt;&lt;/div&gt;&lt;div style=&quot;text-align: left;&quot;&gt;&lt;span style=&quot;background-color: initial;&quot;&gt;gbk：英文占1个字节，中文占2个字节&lt;/span&gt;&lt;/div&gt;" style="text;html=1;strokeColor=none;fillColor=none;align=center;verticalAlign=middle;whiteSpace=wrap;rounded=0;fontFamily=Verdana;" parent="1" vertex="1">
                    <mxGeometry x="177.5" y="330" width="135" height="120" as="geometry"/>
                </mxCell>
                <mxCell id="KMKHdDrqFi0lqZ_SUr9B-51" style="edgeStyle=orthogonalEdgeStyle;rounded=0;orthogonalLoop=1;jettySize=auto;html=1;fontFamily=Verdana;" parent="1" source="KMKHdDrqFi0lqZ_SUr9B-50" target="KMKHdDrqFi0lqZ_SUr9B-52" edge="1">
                    <mxGeometry relative="1" as="geometry">
                        <mxPoint x="590" y="410" as="targetPoint"/>
                        <Array as="points">
                            <mxPoint x="545" y="440"/>
                        </Array>
                    </mxGeometry>
                </mxCell>
                <mxCell id="KMKHdDrqFi0lqZ_SUr9B-50" value="InputStreamReader" style="rounded=0;whiteSpace=wrap;html=1;fontFamily=Verdana;" parent="1" vertex="1">
                    <mxGeometry x="480" y="340" width="130" height="50" as="geometry"/>
                </mxCell>
                <mxCell id="KMKHdDrqFi0lqZ_SUr9B-52" value="FileReader" style="rounded=0;whiteSpace=wrap;html=1;fontFamily=Verdana;" parent="1" vertex="1">
                    <mxGeometry x="610" y="410" width="110" height="50" as="geometry"/>
                </mxCell>
                <mxCell id="KMKHdDrqFi0lqZ_SUr9B-54" value="PrintSream" style="rounded=0;whiteSpace=wrap;html=1;fontFamily=Verdana;" parent="1" vertex="1">
                    <mxGeometry x="550" y="912.5" width="120" height="45" as="geometry"/>
                </mxCell>
                <mxCell id="KMKHdDrqFi0lqZ_SUr9B-55" value="PrintWriter" style="rounded=0;whiteSpace=wrap;html=1;fontFamily=Verdana;" parent="1" vertex="1">
                    <mxGeometry x="550" y="1072.5" width="120" height="45" as="geometry"/>
                </mxCell>
                <mxCell id="KMKHdDrqFi0lqZ_SUr9B-58" value="IO&amp;nbsp; &amp;nbsp; &amp;nbsp; 设计模式" style="rounded=0;whiteSpace=wrap;html=1;fontFamily=Verdana;" parent="1" vertex="1">
                    <mxGeometry y="1300" width="1120" height="50" as="geometry"/>
                </mxCell>
                <mxCell id="KMKHdDrqFi0lqZ_SUr9B-65" style="edgeStyle=orthogonalEdgeStyle;rounded=0;orthogonalLoop=1;jettySize=auto;html=1;entryX=0;entryY=0.5;entryDx=0;entryDy=0;fontFamily=Verdana;" parent="1" source="KMKHdDrqFi0lqZ_SUr9B-61" target="KMKHdDrqFi0lqZ_SUr9B-26" edge="1">
                    <mxGeometry relative="1" as="geometry"/>
                </mxCell>
                <mxCell id="KMKHdDrqFi0lqZ_SUr9B-66" style="edgeStyle=orthogonalEdgeStyle;rounded=0;orthogonalLoop=1;jettySize=auto;html=1;exitX=1;exitY=0.5;exitDx=0;exitDy=0;entryX=0;entryY=0.5;entryDx=0;entryDy=0;fontFamily=Verdana;" parent="1" source="KMKHdDrqFi0lqZ_SUr9B-61" target="KMKHdDrqFi0lqZ_SUr9B-36" edge="1">
                    <mxGeometry relative="1" as="geometry"/>
                </mxCell>
                <mxCell id="KMKHdDrqFi0lqZ_SUr9B-67" style="edgeStyle=orthogonalEdgeStyle;rounded=0;orthogonalLoop=1;jettySize=auto;html=1;exitX=1;exitY=0.5;exitDx=0;exitDy=0;entryX=0;entryY=0.5;entryDx=0;entryDy=0;fontFamily=Verdana;" parent="1" source="KMKHdDrqFi0lqZ_SUr9B-61" target="KMKHdDrqFi0lqZ_SUr9B-37" edge="1">
                    <mxGeometry relative="1" as="geometry"/>
                </mxCell>
                <mxCell id="KMKHdDrqFi0lqZ_SUr9B-61" value="FilterInputStream" style="rounded=0;whiteSpace=wrap;html=1;fontFamily=Verdana;" parent="1" vertex="1">
                    <mxGeometry x="527.5" y="210" width="145" height="40" as="geometry"/>
                </mxCell>
            </root>
        </mxGraphModel>
    </diagram>
</mxfile>